{"title":"Rapport 20130828 1930 textat 986 kbps.mp4","uid":8878804,"size":223215334,"categoryP":"video","categoryS":"tv_shows","magnet":"?xt=urn:btih:7c8fff2a9b25298c659ab484b858822ec41c9f50&amp;dn=Rapport+20130828+1930+textat+986+kbps.mp4&amp;tr=udp%3A%2F%2Ftracker.openbittorrent.com%3A80&amp;tr=udp%3A%2F%2Fopen.demonii.com%3A1337&amp;tr=udp%3A%2F%2Ftracker.coppersurfer.tk%3A6969&amp;tr=udp%3A%2F%2Fexodus.desync.com%3A6969","seeders":0,"leechers":0,"uploader":"lowwebripper","files":1,"time":1378276816,"description":"Rapport 20130828 1930 textat 986 kbps.mp4\n\nGeneral\nComplete name                            : Rapport 20130828 1930 textat 986 kbps.mp4\nFormat                                   : MPEG-4\nFormat profile                           : Base Media\nCodec ID                                 : isom\nFile size                                : 213 MiB\nDuration                                 : 30mn 0s\nOverall bit rate mode                    : Variable\nOverall bit rate                         : 992 Kbps\nWriting application                      : Lavf54.61.104\n\nVideo\nID                                       : 1\nFormat                                   : AVC\nFormat/Info                              : Advanced Video Codec\nFormat profile                           : &lt;a class=&quot;__cf_email__&quot; href=&quot;/cdn-cgi/l/email-protection&quot; data-cfemail=&quot;7f321e16113f334c514f&quot;&gt;[email&amp;#160;protected]&lt;/a&gt;&lt;script cf-hash='f9e31' type=&quot;text/javascript&quot;&gt;\n/* &lt;![CDATA[ */!function(){try{var t=&quot;currentScript&quot;in document?document.currentScript:function(){for(var t=document.getElementsByTagName(&quot;script&quot;),e=t.length;e--;)if(t[e].getAttribute(&quot;cf-hash&quot;))return t[e]}();if(t&amp;&amp;t.previousSibling){var e,r,n,i,c=t.previousSibling,a=c.getAttribute(&quot;data-cfemail&quot;);if(a){for(e=&quot;&quot;,r=parseInt(a.substr(0,2),16),n=2;a.length-n;n+=2)i=parseInt(a.substr(n,2),16)^r,e+=String.fromCharCode(i);e=document.createTextNode(e),c.parentNode.replaceChild(e,c)}}}catch(u){}}();/* ]]&gt; */&lt;/script&gt;\nFormat settings, CABAC                   : Yes\nFormat settings, ReFrames                : 4 frames\nFormat settings, GOP                     : M=4, N=50\nCodec ID                                 : avc1\nCodec ID/Info                            : Advanced Video Coding\nDuration                                 : 30mn 0s\nBit rate mode                            : Constant\nBit rate                                 : 891 Kbps\nWidth                                    : 768 pixels\nHeight                                   : 432 pixels\nDisplay aspect ratio                     : 16:9\nFrame rate mode                          : Constant\nFrame rate                               : 25.000 fps\nColor space                              : YUV\nChroma subsampling                       : 4:2:0\nBit depth                                : 8 bits\nScan type                                : Progressive\nBits/(Pixel*Frame)                       : 0.107\nStream size                              : 192 MiB (90%)\n\nAudio\nID                                       : 2\nFormat                                   : AAC\nFormat/Info                              : Advanced Audio Codec\nFormat profile                           : HE-AAC / LC\nCodec ID                                 : 40\nDuration                                 : 30mn 0s\nBit rate mode                            : Variable\nBit rate                                 : 96.0 Kbps\nChannel(s)                               : 2 channels\nChannel positions                        : Front: L R\nSampling rate                            : 48.0 KHz / 24.0 KHz\nCompression mode                         : Lossy\nStream size                              : 20.2 MiB (10%)\n\n","torrent":{"xt":"urn:btih:7c8fff2a9b25298c659ab484b858822ec41c9f50","amp;dn":"Rapport+20130828+1930+textat+986+kbps.mp4","amp;tr":["udp%3A%2F%2Ftracker.openbittorrent.com%3A80","udp%3A%2F%2Fopen.demonii.com%3A1337","udp%3A%2F%2Ftracker.coppersurfer.tk%3A6969","udp%3A%2F%2Fexodus.desync.com%3A6969"],"infoHash":"7c8fff2a9b25298c659ab484b858822ec41c9f50","infoHashBuffer":{"type":"Buffer","data":[124,143,255,42,155,37,41,140,101,154,180,132,184,88,130,46,196,28,159,80]},"announce":[],"urlList":[]}}